# xmcd
#
# Track frame offsets: 
#        150
#        14140
#        26475
#        39110
#        51510
#        64347
#        75870
#        89095
#        104305
#        118585
#        129762
#        143517
#        154817
#        167590
#        176265
#        188142
#        197617
#        214350
#        225095
#        238037
#
# Disc length: 3311 seconds
#
# Revision: 7
# Processed by: cddbd v1.5.2PL0 Copyright (c) Steve Scherf et al.
# Submitted via: ExactAudioCopy v1.0b3
#
DISCID=000ced14
DTITLE=Simon and Garfunkel - The Essential Simon and Garfunkel [Disc 1]
DYEAR=2003
DGENRE=Pop - 1970s
TTITLE0=The Sound Of Silence
TTITLE1=Wednesday Morning, 3 A.M. (Live)
TTITLE2=Bye Bye Love
TTITLE3=Bleecker Street
TTITLE4=I Am A Rock
TTITLE5=A Most Peculiar Man (Live)
TTITLE6=Richard Cory
TTITLE7=Kathy's Song (Live)
TTITLE8=Scarborough Fair - Canticle
TTITLE9=Homeward Bound
TTITLE10=Sparrow (Live)
TTITLE11=Leaves That Are Green (Live)
TTITLE12=He Was My Brother
TTITLE13=The 59th Street Bridge Song (Feelin' Groovy)
TTITLE14=The Dangling Conversation
TTITLE15=A Poem On The Underground Wall (Live)
TTITLE16=Blessed (Live)
TTITLE17=Cloudy
TTITLE18=Blues Run The Game
TTITLE19=A Hazy Shade Of Winter
EXTD=
EXTT0=Sound of Silence 66, 64/3/10
EXTT1=Live from New York City 2002, Lincoln Center 67/1/22
EXTT2=Bridge over troubled water 70, 1969/11/14
EXTT3=Wednesday Morning, 3 AM 64, 64/3/10
EXTT4=Sound of Silence 66, 64/3/10
EXTT5=Old Friends 97, Live at Burlington, Vermont, 1968/10/13
EXTT6=Sound of Silence 66, 65/12/14
EXTT7=1969
EXTT8=Parsley, Rosemary and Thyme 66b, 66/7/26
EXTT9=Parsley, Rosemary and Thyme 66b, 65/12/14
EXTT10=Live from New York City 2002, Lincoln Center 67/1/22
EXTT11=Live from New York City 2002, Lincoln Center 67/1/22
EXTT12=Wednesday Morning, 3 AM  64, 64/3/17
EXTT13=Parsley, Rosemary and Thyme 66b, 66/8/16
EXTT14=Parsley, Rosemary and Thyme 66b, 66/6/21
EXTT15=Live from New York City 2002, Lincoln Center 67/1/22
EXTT16=Live from New York City 2002, Lincoln Center 67/1/22
EXTT17=Parsley, Rosemary and Thyme 66b, 66/6/10
EXTT18=Old Friends 97, 65/12/21
EXTT19=Bookends 68, 66/9/7
PLAYORDER=
